<?xml version="1.0" encoding="UTF-8"?>
<svg width="53px" height="53px" viewBox="0 0 53 53" version="1.1" xmlns="http://www.w3.org/2000/svg" xmlns:xlink="http://www.w3.org/1999/xlink">
    <!-- Generator: Sketch 62 (91390) - https://sketch.com -->
    <title>BMW-logo-grey-fallback-53px</title>
    <desc>Created with Sketch.</desc>
    <g id="BMW-logo-grey-fallback-53px" stroke="none" stroke-width="1" fill="none" fill-rule="evenodd">
        <g id="BMW-logo">
            <g id="BMW-logo-fallback">
                <g id="BMW_Grey-Colour_RGB-2">
                    <g id="BMW_Grey-Colour_RGB" fill-rule="nonzero">
                        <path d="M26.5,0 C11.8648577,0 0,11.8648577 0,26.5 C0,41.1351423 11.8648577,53 26.5,53 C41.1351423,53 53,41.1351423 53,26.5 C53,11.8648577 41.1351423,0 26.5,0 L26.5,0 Z M51.2767521,26.5 C51.2767521,40.1831491 40.1847072,51.2767521 26.5,51.2767521 C12.8152928,51.2767521 1.72324788,40.1831491 1.72324788,26.5 C1.72324788,12.8168509 12.8168509,1.72324788 26.5,1.72324788 C40.1831491,1.72324788 51.2767521,12.8168509 51.2767521,26.5 Z" id="Shape" fill="#6F6F6F"></path>
                        <path d="M26.5,10.7962963 L26.5,11.6573064 L26.5,11.6573064 C34.6834887,11.6573064 41.3426936,18.3149544 41.3426936,26.5 L42.2037037,26.5 C42.2037037,17.8276195 35.1723805,10.7962963 26.5,10.7962963 L26.5,10.7962963 M26.5,41.3426936 C18.3165113,41.3426936 11.6573064,34.6850456 11.6573064,26.5 L10.7962963,26.5 C10.7962963,35.1723805 17.8276195,42.2037037 26.5,42.2037037" id="Shape" fill="#6F6F6F"></path>
                        <g id="Group" transform="translate(7.197531, 3.271605)" fill="#6F6F6F">
                            <path d="M31.9907293,12.0458337 C32.3503156,12.4292226 32.8686803,13.0475919 33.159774,13.4232513 L38.5208791,10.0438631 C38.2531352,9.69603039 37.8266129,9.16732465 37.5074995,8.79475716 L34.1124442,11.0239784 L33.8805033,11.2218566 L34.0532915,10.971417 L35.5523462,8.00015263 L34.492267,6.94737892 L31.4988277,8.43610297 L31.2466502,8.60770045 L31.4474582,8.37735789 L33.6937052,5.00724529 C33.2983159,4.67332587 32.9184931,4.36723308 32.4343748,3.9962115 L29.0315362,9.31573328 C29.4627285,9.64501492 30.030906,10.1288889 30.3936056,10.4581705 L33.5971929,8.80712454 L33.8026707,8.65716999 L33.6516756,8.86123185 L31.9907293,12.0458337 Z" id="W_61_"></path>
                            <path d="M19.8255038,5.30406254 L21.2903121,2.04525641 L21.3837112,1.75616877 L21.3572481,2.0576238 L21.5113565,6.41248949 C22.0250513,6.46041311 22.5558692,6.53152557 23.0789038,6.61809727 L22.8407363,0.16850563 C22.1091104,0.0881176231 21.3805979,0.0309184643 20.6520853,0 L19.2090701,3.55716931 L19.1577006,3.82152218 L19.1063311,3.55716931 L17.6648726,0 C16.93636,0.0309184643 16.2078475,0.0881176231 15.4762216,0.16850563 L15.2380541,6.61809727 C15.7610887,6.53152557 16.2919066,6.46195903 16.8056014,6.41248949 L16.9597098,2.0576238 L16.9332467,1.75616877 L17.0266458,2.04525641 L18.4914541,5.30406254 L19.8255038,5.30406254 Z" id="M_61_"></path>
                            <path d="M7.97783503,10.4442572 C8.82465303,9.55844322 9.30410145,8.53504206 8.45728345,7.55801859 C7.99651483,7.02776692 7.22285942,6.91182268 6.58151932,7.17308371 L6.51769663,7.19781848 L6.53793309,7.14216524 C6.63288879,6.89017976 6.69359817,6.08629969 6.00400189,5.53131325 C5.66776533,5.26077669 5.24591298,5.16029168 4.81939068,5.20357753 C4.02394215,5.28396554 3.41217841,5.82349274 1.74656213,7.66777913 C1.24376394,8.22431149 0.512138092,9.10239588 0.0731625846,9.67129562 C0.0731625846,9.67129562 4.6481591,13.9813295 4.6481591,13.9813295 C6.16433692,12.3148243 6.78232726,11.6949091 7.97783503,10.4442572 Z M2.00807945,9.38993759 C2.92961669,8.27068919 3.90875,7.25501764 4.35239546,6.8530776 C4.49249403,6.7263119 4.6450458,6.59954619 4.83028724,6.55007665 C5.13072083,6.46814272 5.44049432,6.6799342 5.51054361,6.986027 C5.58059289,7.29366572 5.38601155,7.5858452 5.1696371,7.82700923 C4.68240542,8.37272012 2.89537037,10.2293739 2.89537037,10.2293739 C2.89537037,10.2293739 2.00807945,9.38993759 2.00807945,9.38993759 Z M3.79978445,11.0780857 C3.79978445,11.0780857 5.54011997,9.2508045 6.10829749,8.66644553 C6.33401185,8.43455705 6.47878037,8.29387804 6.63444544,8.2181278 C6.83525339,8.12073464 7.05474114,8.10063763 7.25087913,8.23049518 C7.44390382,8.35880681 7.53263292,8.57987383 7.48437674,8.79939493 C7.42678067,9.06065595 7.21196286,9.30954959 7.03450468,9.49969814 C6.79478047,9.75477547 4.73066159,11.9484405 4.72754829,11.9515324 L3.79978445,11.0780857 Z" id="B_x5F_22d_61_"></path>
                        </g>
                        <path d="M26.5,10.7962963 L26.5,26.5 L10.7962963,26.5 C10.7962963,17.8213916 17.8213916,10.7962963 26.5,10.7962963 Z" id="Path" fill="#0066B1"></path>
                        <path d="M42.2037037,26.5 C42.2037037,35.1786084 35.1786084,42.2037037 26.5,42.2037037 L26.5,26.5 L42.2037037,26.5 Z" id="Path" fill="#0066B1"></path>
                    </g>
                </g>
            </g>
        </g>
    </g>
</svg>